<mxfile host="app.diagrams.net" modified="2023-09-11T09:13:46.340Z" agent="Mozilla/5.0 (Windows NT 10.0; Win64; x64) AppleWebKit/537.36 (KHTML, like Gecko) Chrome/116.0.0.0 Safari/537.36 Edg/116.0.1938.76" etag="i2xh02xSp1t2D44iiZV2" version="21.7.2" type="github">
  <diagram name="第 1 页" id="ozd8dZ5-k80D_I-6wZ8G">
    <mxGraphModel dx="832" dy="453" grid="1" gridSize="10" guides="1" tooltips="1" connect="1" arrows="1" fold="1" page="1" pageScale="1" pageWidth="827" pageHeight="1169" math="0" shadow="0">
      <root>
        <mxCell id="0" />
        <mxCell id="1" parent="0" />
        <mxCell id="U4SjGk2ufrobgJk8G_T7-9" value="" style="edgeStyle=orthogonalEdgeStyle;rounded=0;orthogonalLoop=1;jettySize=auto;html=1;" edge="1" parent="1" source="U4SjGk2ufrobgJk8G_T7-1" target="U4SjGk2ufrobgJk8G_T7-8">
          <mxGeometry relative="1" as="geometry" />
        </mxCell>
        <mxCell id="U4SjGk2ufrobgJk8G_T7-1" value="LinkedHashMap" style="rounded=0;whiteSpace=wrap;html=1;fillColor=#ffe6cc;strokeColor=#d79b00;" vertex="1" parent="1">
          <mxGeometry x="90" y="80" width="120" height="60" as="geometry" />
        </mxCell>
        <mxCell id="U4SjGk2ufrobgJk8G_T7-11" value="" style="edgeStyle=orthogonalEdgeStyle;rounded=0;orthogonalLoop=1;jettySize=auto;html=1;" edge="1" parent="1" source="U4SjGk2ufrobgJk8G_T7-2" target="U4SjGk2ufrobgJk8G_T7-10">
          <mxGeometry relative="1" as="geometry" />
        </mxCell>
        <mxCell id="U4SjGk2ufrobgJk8G_T7-21" style="edgeStyle=orthogonalEdgeStyle;rounded=0;orthogonalLoop=1;jettySize=auto;html=1;entryX=0.5;entryY=1;entryDx=0;entryDy=0;" edge="1" parent="1" source="U4SjGk2ufrobgJk8G_T7-2" target="U4SjGk2ufrobgJk8G_T7-1">
          <mxGeometry relative="1" as="geometry" />
        </mxCell>
        <mxCell id="U4SjGk2ufrobgJk8G_T7-2" value="ModelMap" style="whiteSpace=wrap;html=1;rounded=0;fillColor=#ffe6cc;strokeColor=#d79b00;" vertex="1" parent="1">
          <mxGeometry x="90" y="220" width="120" height="60" as="geometry" />
        </mxCell>
        <mxCell id="U4SjGk2ufrobgJk8G_T7-20" style="edgeStyle=orthogonalEdgeStyle;rounded=0;orthogonalLoop=1;jettySize=auto;html=1;entryX=0.5;entryY=1;entryDx=0;entryDy=0;" edge="1" parent="1" source="U4SjGk2ufrobgJk8G_T7-4" target="U4SjGk2ufrobgJk8G_T7-2">
          <mxGeometry relative="1" as="geometry" />
        </mxCell>
        <mxCell id="U4SjGk2ufrobgJk8G_T7-4" value="ExtendedModelMap" style="whiteSpace=wrap;html=1;rounded=0;fillColor=#ffe6cc;strokeColor=#d79b00;" vertex="1" parent="1">
          <mxGeometry x="90" y="360" width="120" height="60" as="geometry" />
        </mxCell>
        <mxCell id="U4SjGk2ufrobgJk8G_T7-19" style="edgeStyle=orthogonalEdgeStyle;rounded=0;orthogonalLoop=1;jettySize=auto;html=1;exitX=0.5;exitY=0;exitDx=0;exitDy=0;entryX=0.5;entryY=1;entryDx=0;entryDy=0;" edge="1" parent="1" source="U4SjGk2ufrobgJk8G_T7-6" target="U4SjGk2ufrobgJk8G_T7-4">
          <mxGeometry relative="1" as="geometry" />
        </mxCell>
        <mxCell id="U4SjGk2ufrobgJk8G_T7-6" value="BindingAwareModelMap" style="rounded=0;whiteSpace=wrap;html=1;fillColor=#ffe6cc;strokeColor=#d79b00;" vertex="1" parent="1">
          <mxGeometry x="80" y="510" width="140" height="60" as="geometry" />
        </mxCell>
        <mxCell id="U4SjGk2ufrobgJk8G_T7-8" value="Map" style="whiteSpace=wrap;html=1;rounded=0;fillColor=#dae8fc;strokeColor=#6c8ebf;" vertex="1" parent="1">
          <mxGeometry x="320" y="80" width="120" height="60" as="geometry" />
        </mxCell>
        <mxCell id="U4SjGk2ufrobgJk8G_T7-10" value="Model" style="whiteSpace=wrap;html=1;rounded=0;fillColor=#dae8fc;strokeColor=#6c8ebf;" vertex="1" parent="1">
          <mxGeometry x="330" y="220" width="120" height="60" as="geometry" />
        </mxCell>
        <mxCell id="U4SjGk2ufrobgJk8G_T7-12" value="实现" style="text;strokeColor=none;align=center;fillColor=none;html=1;verticalAlign=middle;whiteSpace=wrap;rounded=0;" vertex="1" parent="1">
          <mxGeometry x="240" y="80" width="60" height="30" as="geometry" />
        </mxCell>
        <mxCell id="U4SjGk2ufrobgJk8G_T7-13" value="实现" style="text;strokeColor=none;align=center;fillColor=none;html=1;verticalAlign=middle;whiteSpace=wrap;rounded=0;" vertex="1" parent="1">
          <mxGeometry x="250" y="220" width="60" height="30" as="geometry" />
        </mxCell>
        <mxCell id="U4SjGk2ufrobgJk8G_T7-14" value="继承" style="text;strokeColor=none;align=center;fillColor=none;html=1;verticalAlign=middle;whiteSpace=wrap;rounded=0;" vertex="1" parent="1">
          <mxGeometry x="150" y="160" width="60" height="30" as="geometry" />
        </mxCell>
        <mxCell id="U4SjGk2ufrobgJk8G_T7-16" value="继承" style="text;strokeColor=none;align=center;fillColor=none;html=1;verticalAlign=middle;whiteSpace=wrap;rounded=0;" vertex="1" parent="1">
          <mxGeometry x="150" y="300" width="60" height="30" as="geometry" />
        </mxCell>
        <mxCell id="U4SjGk2ufrobgJk8G_T7-17" value="继承" style="text;strokeColor=none;align=center;fillColor=none;html=1;verticalAlign=middle;whiteSpace=wrap;rounded=0;" vertex="1" parent="1">
          <mxGeometry x="150" y="450" width="60" height="30" as="geometry" />
        </mxCell>
        <mxCell id="U4SjGk2ufrobgJk8G_T7-22" value="底层" style="text;strokeColor=none;align=center;fillColor=none;html=1;verticalAlign=middle;whiteSpace=wrap;rounded=0;" vertex="1" parent="1">
          <mxGeometry x="120" y="580" width="60" height="30" as="geometry" />
        </mxCell>
      </root>
    </mxGraphModel>
  </diagram>
</mxfile>
